<svg width="1110" height="320" viewBox="0 0 1110 320" fill="none" xmlns="http://www.w3.org/2000/svg">
<mask id="mask0_1_250" style="mask-type:alpha" maskUnits="userSpaceOnUse" x="0" y="0" width="1110" height="320">
<rect width="1110" height="320" rx="8" fill="white"/>
</mask>
<g mask="url(#mask0_1_250)">
<path fill-rule="evenodd" clip-rule="evenodd" d="M0 162L30.525 183.067C61.975 204.133 123.025 246.267 185 230.467C246.975 214.667 308.025 140.933 370 104.067C431.975 67.2 493.025 67.2 555 88.2667C616.975 109.333 678.025 151.467 740 172.533C801.975 193.6 863.025 193.6 925 162C986.975 130.4 1048.03 67.2 1079.47 35.6L1110 4V320H1079.47C1048.03 320 986.975 320 925 320C863.025 320 801.975 320 740 320C678.025 320 616.975 320 555 320C493.025 320 431.975 320 370 320C308.025 320 246.975 320 185 320C123.025 320 61.975 320 30.525 320H0V162Z" fill="url(#paint0_linear_1_250)"/>
<path opacity="0.8" d="M-45.432 -24.6993C-42.3781 -38.4208 -30.2058 -48.1818 -16.1485 -48.1818H98.418C117.985 -48.1818 132.314 -29.7527 127.493 -10.7894L107.215 68.9677C102.393 87.9321 80.999 97.2786 63.8083 87.9309L-36.1355 33.5847C-47.8954 27.19 -53.9958 13.778 -51.0876 0.711617L-45.432 -24.6993Z" fill="#FFC2A0"/>
<path d="M904.568 261.664C907.622 247.943 919.794 238.182 933.851 238.182H1048.42C1067.98 238.182 1082.31 256.611 1077.49 275.574L1057.21 355.331C1052.39 374.296 1031 383.642 1013.81 374.294L913.865 319.948C902.105 313.554 896.004 300.142 898.912 287.075L904.568 261.664Z" fill="#13D726"/>
<g filter="url(#filter0_d_1_250)">
<path d="M-55.432 285.482C-52.3781 271.761 -40.2058 262 -26.1485 262H88.418C107.985 262 122.314 280.429 117.493 299.392L97.2146 379.149C92.3928 398.114 70.999 407.46 53.8083 398.113L-46.1355 343.766C-57.8954 337.372 -63.9958 323.96 -61.0876 310.893L-55.432 285.482Z" fill="#13D726"/>
</g>
<path opacity="0.5" d="M784.341 -134.841C783.806 -148.783 793.225 -160.841 806.984 -163.83L1244.25 -258.829C1263.34 -262.977 1282.01 -248.244 1282.17 -228.907L1285.24 153.047C1285.4 172.493 1266.76 186.128 1247.53 180.638L813.438 56.7238C800.402 53.0026 791.099 41.3876 790.593 28.2017L784.341 -134.841Z" fill="url(#paint1_linear_1_250)"/>
<path opacity="0.5" d="M684.972 208.524C686.178 203.016 691.056 199.091 696.695 199.091H750.629C758.436 199.091 764.165 206.429 762.27 214.003L752.278 253.95C750.366 261.595 741.729 265.353 734.832 261.541L687.831 235.562C683.185 232.994 680.778 227.679 681.914 222.493L684.972 208.524Z" fill="#78B4FD"/>
<path d="M665.683 93.0415C666.754 88.0838 671.139 84.5454 676.211 84.5454H691.677C699.469 84.5454 705.195 91.8568 703.327 99.4221L702.02 104.714C700.121 112.406 691.42 116.178 684.507 112.308L670.949 104.716C666.819 102.404 664.683 97.6674 665.683 93.0415Z" fill="#FC9C66"/>
</g>
<defs>
<filter id="filter0_d_1_250" x="-65.8065" y="262" width="188.24" height="147.775" filterUnits="userSpaceOnUse" color-interpolation-filters="sRGB">
<feFlood flood-opacity="0" result="BackgroundImageFix"/>
<feColorMatrix in="SourceAlpha" type="matrix" values="0 0 0 0 0 0 0 0 0 0 0 0 0 0 0 0 0 0 127 0" result="hardAlpha"/>
<feOffset dy="4"/>
<feGaussianBlur stdDeviation="2"/>
<feColorMatrix type="matrix" values="0 0 0 0 0 0 0 0 0 0 0 0 0 0 0 0 0 0 0.25 0"/>
<feBlend mode="normal" in2="BackgroundImageFix" result="effect1_dropShadow_1_250"/>
<feBlend mode="normal" in="SourceGraphic" in2="effect1_dropShadow_1_250" result="shape"/>
</filter>
<linearGradient id="paint0_linear_1_250" x1="555" y1="150.662" x2="555" y2="348.162" gradientUnits="userSpaceOnUse">
<stop stop-color="#085EC5"/>
<stop offset="1" stop-color="#1379F4"/>
</linearGradient>
<linearGradient id="paint1_linear_1_250" x1="1010.43" y1="-208.03" x2="1105.72" y2="230.563" gradientUnits="userSpaceOnUse">
<stop stop-color="#0461D1"/>
<stop offset="1" stop-color="#0461D1" stop-opacity="0"/>
</linearGradient>
</defs>
</svg>
